<?xml version="1.0" encoding="UTF-8"?>
<svg id="Layer_1" data-name="Layer 1" xmlns="http://www.w3.org/2000/svg" viewBox="0 0 762.94 216.27">
  <defs>
    <style>
      .cls-1 {
        fill: #fff;
      }
    </style>
  </defs>
  <g>
    <polygon class="cls-1" points="134.26 120.28 117.03 136.32 0 136.24 149.62 0 267.79 .08 242.36 23.37 134.26 120.28"/>
    <polygon class="cls-1" points="135.85 163.98 76.37 216.27 46.66 215.98 82.43 184.01 161.03 114.04 173.54 102.62 245.28 166.98 299.87 216.06 194.98 216.15 135.85 163.98"/>
  </g>
  <path class="cls-1" d="M324.35,78.84V27.37h11v21.01h16.36l16.15-21.01h13.68l-20.2,25.7,20.2,25.77h-13.68l-16.22-21.08h-16.29v21.08h-11Z"/>
  <path class="cls-1" d="M384.7,78.91V27.3h53.88v9.38h-42.88v11.41h38.9v9.38h-38.9v12.06h42.88v9.38h-53.88Z"/>
  <path class="cls-1" d="M442.64,78.91V27.3h41.16c5.09,0,9.04,1.35,11.85,4.04,2.82,2.7,4.23,6.79,4.23,12.27,0,4.67-1.03,8.33-3.09,10.97-2.06,2.65-4.99,4.31-8.8,4.98l11.34,19.35h-12.51l-10.51-18.99h-22.68v18.99h-10.99ZM482.5,36.68h-28.86v13.79l28.86.07c2.02,0,3.56-.53,4.64-1.59,1.07-1.06,1.62-2.84,1.62-5.34s-.54-4.34-1.62-5.38c-1.08-1.03-2.62-1.55-4.64-1.55Z"/>
  <path class="cls-1" d="M501.38,78.91l22.13-51.61h16.97l22.13,51.61h-11.96l-4.67-10.9h-27.97l-4.67,10.9h-11.96ZM522,58.62h20l-9.55-22.31h-.89l-9.55,22.31Z"/>
  <path class="cls-1" d="M564.1,78.91V27.3h10.99v42.23h35.94v9.38h-46.94Z"/>
  <path class="cls-1" d="M612.64,78.91l22.13-51.61h16.97l22.13,51.61h-11.96l-4.67-10.9h-27.97l-4.67,10.9h-11.96ZM633.25,58.62h20l-9.55-22.31h-.89l-9.55,22.31Z"/>
  <path class="cls-1" d="M324.42,107.1l-.07-9.31h57.55l.07,9.31h-24.92v41.88h-10.46v-41.88h-11.64.07-10.59Z"/>
  <path class="cls-1" d="M384.85,148.98v-51.19h39.17c4.84,0,8.6,1.34,11.28,4.01,2.68,2.67,4.02,6.73,4.02,12.17,0,4.63-.98,8.26-2.94,10.88-1.96,2.63-4.75,4.27-8.37,4.94l10.79,19.19h-11.9l-10.01-18.83h-21.58v18.83h-10.46ZM422.78,107.1h-27.47v13.67l27.47.07c1.92,0,3.39-.52,4.41-1.57,1.02-1.05,1.54-2.82,1.54-5.3s-.51-4.31-1.54-5.33c-1.02-1.03-2.5-1.54-4.41-1.54Z"/>
  <path class="cls-1" d="M441.5,148.98l21.06-51.19h16.15l21.06,51.19h-11.38l-4.45-10.81h-26.62l-4.45,10.81h-11.38ZM461.12,128.86h19.03l-9.09-22.12h-.85l-9.09,22.12Z"/>
  <path class="cls-1" d="M501.26,149.01v-51.19h7.72l20.93-.07c8.46,0,15.02,2.17,19.68,6.51,4.66,4.34,7,10.71,7,19.11s-2.33,14.77-7,19.11c-4.66,4.34-11.23,6.51-19.68,6.51h-28.64ZM529.19,107.06h-17.46v32.64h17.46c5.49,0,9.66-1.31,12.49-3.94,2.83-2.62,4.25-6.75,4.25-12.39s-1.42-9.82-4.25-12.42c-2.83-2.6-7-3.9-12.49-3.9Z"/>
  <path class="cls-1" d="M559.4,148.98v-51.19h51.27v9.31h-40.81v11.31h37.02v9.31h-37.02v11.96h40.81v9.31h-51.27Z"/>
  <path class="cls-1" d="M615.57,148.98v-51.19h39.17c4.84,0,8.6,1.34,11.28,4.01,2.68,2.67,4.02,6.73,4.02,12.17,0,4.63-.98,8.26-2.94,10.88-1.96,2.63-4.75,4.27-8.37,4.94l10.79,19.19h-11.9l-10.01-18.83h-21.58v18.83h-10.46ZM653.5,107.1h-27.47v13.67l27.47.07c1.92,0,3.39-.52,4.41-1.57,1.02-1.05,1.54-2.82,1.54-5.3s-.51-4.31-1.54-5.33c-1.02-1.03-2.5-1.54-4.41-1.54Z"/>
  <path class="cls-1" d="M674.47,149.69v-9.31l37.6.07c1.92,0,3.39-.49,4.41-1.47,1.02-.98,1.54-2.56,1.54-4.76s-.51-3.78-1.54-4.76c-1.02-.98-2.5-1.47-4.41-1.47h-23.41c-4.84,0-8.6-1.28-11.28-3.83-2.68-2.55-4.02-6.31-4.02-11.28s1.34-8.72,4.02-11.28c2.68-2.55,6.44-3.83,11.28-3.83h36.75v9.31l-35.64-.07c-1.87,0-3.33.46-4.38,1.4-1.05.93-1.57,2.42-1.57,4.47s.52,3.54,1.57,4.47c1.05.93,2.51,1.4,4.38,1.4h23.41c4.84,0,8.6,1.3,11.28,3.9,2.68,2.6,4.02,6.46,4.02,11.56s-1.34,8.9-4.02,11.53c-2.68,2.62-6.44,3.94-11.28,3.94h-38.72Z"/>
  <path class="cls-1" d="M354.01,215.35c-9.6,0-16.94-2.22-22.03-6.65-5.09-4.43-7.63-11.01-7.63-19.74s2.54-15.24,7.63-19.7c5.09-4.46,12.43-6.66,22.03-6.62l26.17.15v9.3h-25.37c-6.3,0-10.98,1.33-14.03,4-3.05,2.67-4.58,6.95-4.58,12.87s1.53,10.21,4.58,12.9,7.73,4.04,14.03,4.04h26.1v9.45h-26.9Z"/>
  <path class="cls-1" d="M384.7,216.27l23.41-51.98h17.96l23.41,51.98h-12.65l-4.94-10.98h-29.59l-4.94,10.98h-12.65ZM406.51,195.84h21.15l-10.1-22.46h-.95l-10.1,22.46Z"/>
  <path class="cls-1" d="M452.42,216.27v-51.98h43.54c5.38,0,9.56,1.36,12.54,4.07,2.98,2.71,4.47,6.83,4.47,12.36,0,4.7-1.09,8.38-3.27,11.05s-5.28,4.34-9.3,5.02l11.99,19.48h-13.23l-11.12-19.12h-23.99v19.12h-11.63ZM494.59,173.74h-30.53v13.89l30.53.07c2.13,0,3.77-.53,4.91-1.6s1.71-2.86,1.71-5.38-.57-4.37-1.71-5.42c-1.14-1.04-2.77-1.56-4.91-1.56Z"/>
  <path class="cls-1" d="M515.29,216.27v-51.98h11.78l36.78,37.36v-37.36h11.63v51.98h-11.78l-36.78-37.44v37.44h-11.63Z"/>
  <path class="cls-1" d="M579.22,216.27v-51.98h11.63v51.98h-11.63Z"/>
  <path class="cls-1" d="M617.22,216.27l-23.41-51.98h12.65l19.26,42.89h.95l19.26-42.89h12.65l-23.41,51.98h-17.96Z"/>
  <path class="cls-1" d="M644.48,216.27l23.41-51.98h17.96l23.41,51.98h-12.65l-4.94-10.98h-29.59l-4.94,10.98h-12.65ZM666.29,195.84h21.15l-10.1-22.46h-.94l-10.1,22.46Z"/>
  <path class="cls-1" d="M713.29,216.27v-51.98h11.63v42.53h38.02v9.45h-49.65Z"/>
</svg>